<svg width="512" height="512" viewBox="0 0 512 512" fill="none" xmlns="http://www.w3.org/2000/svg">
  <!-- Background Squircle Path (iOS-style superellipse) -->
  <path d="M512 170.667C512 26.1458 485.854 0 341.333 0H170.667C26.1458 0 0 26.1458 0 170.667V341.333C0 485.854 26.1458 512 170.667 512H341.333C485.854 512 512 485.854 512 341.333V170.667Z" fill="#FAFAFA"/>
  
  <defs>
    <!-- Soft Drop Shadow for the Ring and Content -->
    <filter id="premiumShadow" x="80" y="60" width="352" height="352" filterUnits="userSpaceOnUse" color-interpolation-filters="sRGB">
      <feFlood flood-opacity="0" result="BackgroundImageFix"/>
      <feColorMatrix in="SourceAlpha" type="matrix" values="0 0 0 0 0 0 0 0 0 0 0 0 0 0 0 0 0 0 127 0" result="hardAlpha"/>
      <feOffset dy="10"/>
      <feGaussianBlur stdDeviation="12"/>
      <feComposite in2="hardAlpha" operator="out"/>
      <feColorMatrix type="matrix" values="0 0 0 0 0 0 0 0 0 0 0 0 0 0 0 0 0 0 0.08 0"/>
      <feBlend mode="normal" in2="BackgroundImageFix" result="effect1_dropShadow"/>
      <feBlend mode="normal" in="SourceGraphic" in2="effect1_dropShadow" result="shape"/>
    </filter>
  </defs>

  <g filter="url(#premiumShadow)">
    <!-- Progress Ring Base (Pale Mint) -->
    <g transform="translate(256, 210)">
      <!-- 60 degree segments (360/6). Gap of 8 degrees. -->
      <!-- Segment arc: 52 degrees. Gap: 8 degrees. -->
      <!-- Total circum: 2*PI*125 = 785.4. Arc len = (52/360)*785.4 = 113.4. Gap len = (8/360)*785.4 = 17.4 -->
      <circle r="125" stroke="#C8E6C9" stroke-width="22" stroke-dasharray="113.4 17.4" stroke-dashoffset="130.8"/>
      <circle r="125" stroke="#C8E6C9" stroke-width="22" stroke-dasharray="113.4 17.4" stroke-dashoffset="261.6"/>
      <circle r="125" stroke="#C8E6C9" stroke-width="22" stroke-dasharray="113.4 17.4" stroke-dashoffset="392.4"/>
      <circle r="125" stroke="#C8E6C9" stroke-width="22" stroke-dasharray="113.4 17.4" stroke-dashoffset="523.2"/>
      <circle r="125" stroke="#C8E6C9" stroke-width="22" stroke-dasharray="113.4 17.4" stroke-dashoffset="654.0"/>

      <!-- Prominent Bold Segment (Top-Left) -->
      <!-- Adjusted path for a clean, thick arc -->
      <path d="M-103.8 -70.4C-85.3 -95.6 -56.6 -112.5 -24 -122" stroke="#2E9D3F" stroke-width="30" stroke-linecap="round"/>
    </g>

    <!-- Refined Minimalist Book Icon -->
    <g transform="translate(256, 210)">
      <!-- Left Page with subtle curve -->
      <path d="M-42 -10C-42 -14 -38 -17 -34 -17H-6V35H-34C-38 35 -42 32 -42 28V-10Z" fill="#3CB043"/>
      <!-- Right Page with subtle curve -->
      <path d="M42 -10C42 -14 38 -17 34 -17H6V35H34C38 35 42 32 42 28V-10Z" fill="#3CB043"/>
      <!-- Spine overlay -->
      <path d="M-2 -17H2V35H-2V-17Z" fill="#2E9D3F" opacity="0.9"/>
      <path d="M-2 -17C-2 -19 2 -19 2 -17V35C2 37 -2 37 -2 35V-17Z" fill="#2E9D3F"/>
      
      <!-- Minimal Page Lines -->
      <rect x="-32" y="-5" width="18" height="2" rx="1" fill="white" fill-opacity="0.8"/>
      <rect x="-32" y="5" width="18" height="2" rx="1" fill="white" fill-opacity="0.8"/>
      <rect x="-32" y="15" width="18" height="2" rx="1" fill="white" fill-opacity="0.8"/>
      
      <rect x="14" y="-5" width="18" height="2" rx="1" fill="white" fill-opacity="0.8"/>
      <rect x="14" y="5" width="18" height="2" rx="1" fill="white" fill-opacity="0.8"/>
      <rect x="14" y="15" width="18" height="2" rx="1" fill="white" fill-opacity="0.8"/>
    </g>
  </g>

  <!-- Professional Typography -->
  <text fill="#0A0A0A" xml:space="preserve" style="white-space: pre" font-family="'Inter', -apple-system, system-ui, sans-serif" font-size="46" font-weight="800" letter-spacing="-0.03em">
    <tspan x="256" y="420" text-anchor="middle">THE DAILY</tspan>
    <tspan x="256" y="472" text-anchor="middle">LOGOS</tspan>
  </text>
</svg>
